<svg id="svg" version="1.1" xmlns="http://www.w3.org/2000/svg" xmlns:xlink="http://www.w3.org/1999/xlink" width="400" height="400" viewBox="0, 0, 400,400"><g id="svgg"><path id="path0" d="M248.125 87.979 C 222.827 90.437,202.237 110.038,198.575 135.151 C 197.668 141.371,198.029 151.338,199.308 155.367 C 199.476 155.895,199.341 155.891,191.820 155.160 C 151.737 151.264,114.199 131.597,87.783 100.652 C 86.558 99.218,85.458 98.008,85.338 97.965 C 85.218 97.921,84.328 99.503,83.360 101.479 C 71.779 125.128,78.687 154.426,99.532 170.068 L 101.969 171.897 100.480 171.766 C 93.077 171.116,86.734 169.410,80.167 166.305 C 78.681 165.602,77.427 165.027,77.381 165.027 C 76.900 165.027,77.668 173.680,78.481 177.414 C 83.102 198.641,98.684 214.471,120.332 219.929 C 120.979 220.093,120.884 220.148,119.265 220.543 C 113.890 221.855,105.109 222.227,99.617 221.377 C 96.382 220.876,96.518 220.777,97.329 223.053 C 104.562 243.334,123.032 257.392,145.187 259.479 L 148.074 259.751 145.584 261.560 C 129.377 273.338,111.302 280.297,91.049 282.555 C 86.356 283.079,73.856 283.142,69.519 282.664 C 65.835 282.258,65.837 282.252,69.045 284.225 C 110.416 309.670,162.724 314.595,209.010 297.406 C 268.200 275.424,309.162 214.837,309.186 149.235 L 309.188 142.573 311.263 141.015 C 318.346 135.698,326.322 127.841,331.777 120.806 C 334.286 117.572,336.766 114.044,336.629 113.906 C 336.561 113.838,334.761 114.472,332.628 115.315 C 324.579 118.492,315.465 120.962,308.002 121.989 C 307.416 122.070,306.615 122.193,306.224 122.264 C 305.687 122.360,306.073 122.007,307.796 120.825 C 317.211 114.367,324.451 105.076,328.507 94.248 C 328.981 92.982,329.323 91.899,329.266 91.842 C 329.209 91.785,327.789 92.508,326.110 93.449 C 318.112 97.932,308.257 101.796,298.991 104.082 C 293.725 105.382,294.423 105.487,291.824 103.002 C 280.338 92.022,264.074 86.430,248.125 87.979 " stroke="none" fill="#54acec" fill-rule="evenodd"></path><path id="path1" d="" stroke="none" fill="#58acec" fill-rule="evenodd"></path><path id="path2" d="" stroke="none" fill="#58acec" fill-rule="evenodd"></path><path id="path3" d="" stroke="none" fill="#58acec" fill-rule="evenodd"></path><path id="path4" d="" stroke="none" fill="#58acec" fill-rule="evenodd"></path></g></svg>